<svg width="165" height="28" viewBox="0 0 165 28" fill="none" xmlns="http://www.w3.org/2000/svg">
<rect width="93" height="28" rx="3" fill="#151515"/>
<path d="M24.5494 18V9.684H21.4414V8.242H29.2814V9.684H26.1874V18H24.5494ZM29.2928 18V11.098H30.8608V12.96L30.5668 13.002C30.6135 12.6007 30.7488 12.2507 30.9728 11.952C31.1968 11.644 31.4675 11.406 31.7848 11.238C32.1115 11.0607 32.4335 10.972 32.7508 10.972C32.9748 10.972 33.1895 11 33.3948 11.056C33.6001 11.112 33.8148 11.2053 34.0388 11.336L33.2828 12.736C33.1801 12.6707 33.0448 12.6193 32.8768 12.582C32.7181 12.5353 32.5641 12.512 32.4148 12.512C32.2188 12.512 32.0228 12.5493 31.8268 12.624C31.6401 12.6987 31.4721 12.8153 31.3228 12.974C31.1735 13.1233 31.0615 13.3193 30.9868 13.562C30.9401 13.6927 30.9028 13.8653 30.8748 14.08C30.8561 14.2853 30.8468 14.5747 30.8468 14.948V18H29.2928ZM39.4733 18L39.3613 16.838V13.646C39.3613 13.198 39.226 12.862 38.9553 12.638C38.6847 12.4047 38.3067 12.288 37.8213 12.288C37.448 12.288 37.0793 12.3627 36.7153 12.512C36.3607 12.652 36.034 12.8713 35.7353 13.17L34.8673 12.148C35.3153 11.728 35.7913 11.4293 36.2953 11.252C36.7993 11.0653 37.35 10.972 37.9473 10.972C38.8807 10.972 39.604 11.21 40.1173 11.686C40.64 12.1527 40.9013 12.806 40.9013 13.646V18H39.4733ZM37.3313 18.126C36.818 18.126 36.3607 18.0327 35.9593 17.846C35.5673 17.6593 35.2593 17.398 35.0353 17.062C34.8207 16.726 34.7133 16.334 34.7133 15.886C34.7133 15.5033 34.7927 15.172 34.9513 14.892C35.1193 14.612 35.334 14.3927 35.5953 14.234C35.8193 14.094 36.0807 13.996 36.3793 13.94C36.678 13.8747 36.9907 13.842 37.3173 13.842H39.4873V15.004H37.5413C37.3733 15.004 37.2053 15.0227 37.0373 15.06C36.8693 15.088 36.72 15.144 36.5893 15.228C36.496 15.3027 36.4167 15.396 36.3513 15.508C36.2953 15.62 36.2673 15.7507 36.2673 15.9C36.2673 16.1987 36.3793 16.4367 36.6033 16.614C36.8367 16.782 37.1447 16.866 37.5273 16.866C37.8633 16.866 38.1667 16.7913 38.4373 16.642C38.7173 16.4927 38.9413 16.2873 39.1093 16.026C39.2773 15.7647 39.3613 15.4707 39.3613 15.144L39.8373 15.914C39.7253 16.3993 39.548 16.81 39.3053 17.146C39.0627 17.4727 38.7733 17.72 38.4373 17.888C38.1013 18.0467 37.7327 18.126 37.3313 18.126ZM42.5666 20.982C42.3892 20.982 42.1932 20.9633 41.9786 20.926C41.7732 20.8887 41.5726 20.842 41.3766 20.786V19.442C41.5072 19.47 41.6239 19.4933 41.7266 19.512C41.8386 19.5307 41.9272 19.54 41.9926 19.54C42.1979 19.54 42.3519 19.4887 42.4546 19.386C42.5666 19.2927 42.6226 19.1013 42.6226 18.812V11.098H44.1766V19.232C44.1766 19.8387 44.0272 20.282 43.7286 20.562C43.4299 20.842 43.0426 20.982 42.5666 20.982ZM42.5526 9.964V8.242H44.2466V9.964H42.5526ZM49.0102 18.126C48.4315 18.126 47.9275 18.0327 47.4982 17.846C47.0782 17.6593 46.7328 17.398 46.4622 17.062C46.1915 16.726 45.9908 16.348 45.8602 15.928C45.7295 15.4987 45.6642 15.0553 45.6642 14.598C45.6642 14.1407 45.7248 13.6973 45.8462 13.268C45.9768 12.8293 46.1728 12.4373 46.4342 12.092C46.6955 11.7467 47.0315 11.476 47.4422 11.28C47.8528 11.0747 48.3382 10.972 48.8982 10.972C49.4302 10.972 49.8922 11.0653 50.2842 11.252C50.6855 11.4293 51.0168 11.6813 51.2782 12.008C51.5395 12.3253 51.7308 12.6893 51.8522 13.1C51.9828 13.5107 52.0482 13.9493 52.0482 14.416C52.0482 14.4813 52.0435 14.5747 52.0342 14.696C52.0342 14.8173 52.0248 14.9387 52.0062 15.06H47.2182C47.2555 15.6107 47.4422 16.0307 47.7782 16.32C48.1142 16.6093 48.5435 16.754 49.0662 16.754C49.4488 16.754 49.7988 16.6933 50.1162 16.572C50.4335 16.4507 50.7228 16.2593 50.9842 15.998L51.8382 17.034C51.5488 17.2953 51.2595 17.5053 50.9702 17.664C50.6808 17.8227 50.3775 17.9393 50.0602 18.014C49.7522 18.0887 49.4022 18.126 49.0102 18.126ZM50.5222 14.276C50.5408 14.2013 50.5502 14.1267 50.5502 14.052C50.5595 13.9773 50.5642 13.9027 50.5642 13.828C50.5642 13.6227 50.5268 13.4267 50.4522 13.24C50.3868 13.0533 50.2842 12.89 50.1442 12.75C50.0042 12.6007 49.8315 12.484 49.6262 12.4C49.4208 12.3067 49.1875 12.26 48.9262 12.26C48.5622 12.26 48.2542 12.3393 48.0022 12.498C47.7595 12.6567 47.5682 12.862 47.4282 13.114C47.2975 13.3567 47.2182 13.6227 47.1902 13.912H51.0262L50.5222 14.276ZM56.5424 18.126C56.0011 18.126 55.5204 18.0327 55.1004 17.846C54.6897 17.65 54.3444 17.384 54.0644 17.048C53.7937 16.7027 53.5884 16.3153 53.4484 15.886C53.3084 15.4567 53.2384 15.0087 53.2384 14.542C53.2384 14.0753 53.3084 13.6273 53.4484 13.198C53.5884 12.7687 53.7937 12.386 54.0644 12.05C54.3444 11.714 54.6897 11.4527 55.1004 11.266C55.5204 11.07 56.0011 10.972 56.5424 10.972C57.2237 10.972 57.8164 11.1353 58.3204 11.462C58.8337 11.7887 59.2117 12.2927 59.4544 12.974L58.0824 13.506C57.9704 13.1513 57.7884 12.8667 57.5364 12.652C57.2844 12.428 56.9531 12.316 56.5424 12.316C56.1317 12.316 55.7957 12.4233 55.5344 12.638C55.2824 12.8527 55.0957 13.128 54.9744 13.464C54.8531 13.8 54.7924 14.1593 54.7924 14.542C54.7924 14.9247 54.8531 15.2887 54.9744 15.634C55.0957 15.97 55.2824 16.2453 55.5344 16.46C55.7957 16.6653 56.1317 16.768 56.5424 16.768C56.9531 16.768 57.2844 16.6607 57.5364 16.446C57.7884 16.2313 57.9704 15.9467 58.0824 15.592L59.4544 16.124C59.2117 16.796 58.8337 17.3 58.3204 17.636C57.8164 17.9627 57.2237 18.126 56.5424 18.126ZM63.3672 18.126C63.0218 18.126 62.6952 18.0607 62.3872 17.93C62.0885 17.79 61.8505 17.5707 61.6732 17.272C61.4958 16.964 61.4072 16.5627 61.4072 16.068V9.418L62.9752 8.55V15.634C62.9752 16.026 63.0312 16.3293 63.1432 16.544C63.2645 16.7493 63.4792 16.852 63.7872 16.852C63.8805 16.852 63.9878 16.8427 64.1092 16.824C64.2398 16.796 64.3752 16.7633 64.5152 16.726V17.93C64.3285 17.9953 64.1372 18.042 63.9412 18.07C63.7545 18.1073 63.5632 18.126 63.3672 18.126ZM60.0912 12.302V11.098H64.5152V12.302H60.0912ZM68.8774 18.126C68.224 18.126 67.636 17.972 67.1134 17.664C66.5907 17.356 66.18 16.9313 65.8814 16.39C65.592 15.8487 65.4474 15.2327 65.4474 14.542C65.4474 13.8513 65.592 13.2353 65.8814 12.694C66.18 12.1527 66.586 11.7327 67.0994 11.434C67.622 11.126 68.2147 10.972 68.8774 10.972C69.5494 10.972 70.1374 11.126 70.6414 11.434C71.1547 11.7327 71.5607 12.1527 71.8594 12.694C72.158 13.2353 72.3074 13.8513 72.3074 14.542C72.3074 15.2327 72.158 15.8487 71.8594 16.39C71.57 16.9313 71.164 17.356 70.6414 17.664C70.128 17.972 69.54 18.126 68.8774 18.126ZM68.8914 16.754C69.274 16.754 69.6054 16.6653 69.8854 16.488C70.1654 16.3107 70.38 16.054 70.5294 15.718C70.6787 15.382 70.7534 14.99 70.7534 14.542C70.7534 14.0847 70.6787 13.6927 70.5294 13.366C70.38 13.03 70.1654 12.7733 69.8854 12.596C69.6054 12.4187 69.274 12.33 68.8914 12.33C68.49 12.33 68.1494 12.4233 67.8694 12.61C67.5894 12.7873 67.3747 13.0393 67.2254 13.366C67.076 13.6927 67.0014 14.0847 67.0014 14.542C67.0014 14.99 67.076 15.382 67.2254 15.718C67.3747 16.054 67.5894 16.3107 67.8694 16.488C68.1494 16.6653 68.49 16.754 68.8914 16.754ZM73.8084 18V11.098H75.3764V12.96L75.0824 13.002C75.1291 12.6007 75.2644 12.2507 75.4884 11.952C75.7124 11.644 75.9831 11.406 76.3004 11.238C76.6271 11.0607 76.9491 10.972 77.2664 10.972C77.4904 10.972 77.7051 11 77.9104 11.056C78.1158 11.112 78.3304 11.2053 78.5544 11.336L77.7984 12.736C77.6958 12.6707 77.5604 12.6193 77.3924 12.582C77.2338 12.5353 77.0798 12.512 76.9304 12.512C76.7344 12.512 76.5384 12.5493 76.3424 12.624C76.1558 12.6987 75.9878 12.8153 75.8384 12.974C75.6891 13.1233 75.5771 13.3193 75.5024 13.562C75.4558 13.6927 75.4184 13.8653 75.3904 14.08C75.3718 14.2853 75.3624 14.5747 75.3624 14.948V18H73.8084ZM80.2893 20.842L81.6613 17.538L79.0293 11.098H80.7373L82.4873 15.984L84.2653 11.098H85.9453L81.9693 20.842H80.2893Z" fill="#F2D04E"/>
</svg>
