<svg width="58" height="17" viewBox="0 0 58 17" fill="none" xmlns="http://www.w3.org/2000/svg">
<rect width="57.2632" height="17" rx="3" fill="#971D1B"/>
<path d="M4.71 12V5.03H7.09C7.77 5.03 8.30333 5.18667 8.69 5.5C9.08333 5.80667 9.28 6.23333 9.28 6.78C9.28 7.11333 9.21 7.40667 9.07 7.66C8.93 7.90667 8.73333 8.10333 8.48 8.25C8.86667 8.37667 9.15667 8.58667 9.35 8.88C9.54333 9.17333 9.64 9.54 9.64 9.98C9.64 10.6133 9.44 11.11 9.04 11.47C8.64667 11.8233 8.09333 12 7.38 12H4.71ZM5.87 10.94H7.29C8.09 10.94 8.49 10.6033 8.49 9.93C8.49 9.61 8.39333 9.36333 8.2 9.19C8.01333 9.01 7.75 8.92 7.41 8.92H5.87V10.94ZM5.87 7.88H7.17C7.46333 7.88 7.69667 7.8 7.87 7.64C8.04333 7.47333 8.13 7.24667 8.13 6.96C8.13 6.68667 8.03667 6.47333 7.85 6.32C7.67 6.16667 7.41667 6.09 7.09 6.09H5.87V7.88ZM10.794 12V5.03H11.954V10.97H14.964V12H10.794ZM15.2038 12L17.9638 5.03H18.8438L21.5938 12H20.3338L18.4038 6.72L16.4738 12H15.2038ZM16.9238 10.54L17.2838 9.51H19.5138L19.8938 10.54H16.9238ZM25.1028 12.14C24.4495 12.14 23.8761 11.99 23.3828 11.69C22.8895 11.39 22.5028 10.9667 22.2228 10.42C21.9495 9.87333 21.8128 9.23667 21.8128 8.51C21.8128 7.78333 21.9495 7.15 22.2228 6.61C22.5028 6.06333 22.8895 5.64 23.3828 5.34C23.8761 5.04 24.4495 4.89 25.1028 4.89C25.8295 4.89 26.4561 5.07 26.9828 5.43C27.5161 5.79 27.8995 6.29 28.1328 6.93L27.0528 7.32C26.8928 6.9 26.6461 6.57333 26.3128 6.34C25.9795 6.10667 25.5761 5.99 25.1028 5.99C24.6695 5.99 24.2928 6.09333 23.9728 6.3C23.6528 6.50667 23.4028 6.79667 23.2228 7.17C23.0495 7.54333 22.9628 7.99 22.9628 8.51C22.9628 9.03 23.0495 9.48 23.2228 9.86C23.4028 10.2333 23.6528 10.5233 23.9728 10.73C24.2928 10.9367 24.6695 11.04 25.1028 11.04C25.5761 11.04 25.9795 10.9233 26.3128 10.69C26.6461 10.45 26.8928 10.1233 27.0528 9.71L28.1328 10.1C27.8995 10.7267 27.5161 11.2233 26.9828 11.59C26.4561 11.9567 25.8295 12.14 25.1028 12.14ZM30.0929 9.86V8.4L33.2929 5.03H34.8429L30.0929 9.86ZM29.1729 12V5.03H30.3329V12H29.1729ZM33.5029 12L31.2329 8.41L32.1029 7.61L34.8629 12H33.5029ZM35.7061 12V5.03H36.8661V10.97H39.8761V12H35.7061ZM40.7159 12V5.03H41.8759V12H40.7159ZM45.544 12.13C44.8107 12.13 44.2107 11.94 43.744 11.56C43.284 11.18 43.0007 10.6733 42.894 10.04L44.024 9.76C44.0973 10.2 44.2707 10.5333 44.544 10.76C44.824 10.9867 45.1673 11.1 45.574 11.1C45.8007 11.1 46.004 11.06 46.184 10.98C46.364 10.8933 46.504 10.7733 46.604 10.62C46.7107 10.4667 46.764 10.2933 46.764 10.1C46.764 9.89333 46.7073 9.72333 46.594 9.59C46.4807 9.45 46.3173 9.32667 46.104 9.22C45.8907 9.10667 45.6307 8.99 45.324 8.87C44.904 8.71 44.5473 8.53667 44.254 8.35C43.9607 8.16333 43.7373 7.94333 43.584 7.69C43.4307 7.43 43.354 7.12333 43.354 6.77C43.354 6.40333 43.444 6.08 43.624 5.8C43.804 5.51333 44.0573 5.29 44.384 5.13C44.7107 4.97 45.0873 4.89 45.514 4.89C45.974 4.89 46.3807 4.99333 46.734 5.2C47.0873 5.40667 47.3707 5.72 47.584 6.14L46.664 6.7C46.524 6.44667 46.354 6.25333 46.154 6.12C45.954 5.98 45.7273 5.91 45.474 5.91C45.294 5.91 45.1307 5.94667 44.984 6.02C44.8373 6.08667 44.7207 6.18333 44.634 6.31C44.554 6.43667 44.514 6.58333 44.514 6.75C44.514 6.92333 44.564 7.07667 44.664 7.21C44.764 7.33667 44.9173 7.45333 45.124 7.56C45.3373 7.66667 45.6073 7.78333 45.934 7.91C46.354 8.07 46.7107 8.24333 47.004 8.43C47.2973 8.61667 47.5207 8.84 47.674 9.1C47.834 9.35333 47.914 9.66333 47.914 10.03C47.914 10.4367 47.814 10.7967 47.614 11.11C47.414 11.4233 47.134 11.6733 46.774 11.86C46.4207 12.04 46.0107 12.13 45.544 12.13ZM50.6076 12V6.06H48.3876V5.03H53.9876V6.06H51.7776V12H50.6076Z" fill="#151515"/>
</svg>
